<svg xmlns="http://www.w3.org/2000/svg" width="20" height="21" viewBox="0 0 20 21">
  <path fill="#212529" d="M175.289062,48.2109375 C175.40625,48.2109375 175.520182,48.1686198 175.630859,48.0839844 C175.741536,47.999349 175.829427,47.8658854 175.894531,47.6835938 L183.882812,29.0507812 C183.986979,28.8033854 184.013021,28.6080729 183.960938,28.4648438 C183.908854,28.3216146 183.791667,28.25 183.609375,28.25 C183.544271,28.25 183.475911,28.2597656 183.404297,28.2792969 C183.332682,28.2988281 183.257812,28.3216146 183.179688,28.3476562 L164.527344,36.2578125 C164.201823,36.4010417 164.029297,36.593099 164.009766,36.8339844 C163.990234,37.0748698 164.130208,37.2929688 164.429688,37.4882812 L169.703125,40.7695312 C170.015625,40.9648438 170.350911,41.2415365 170.708984,41.5996094 C171.067057,41.9576823 171.33724,42.2929688 171.519531,42.6054688 L174.683594,47.78125 C174.77474,47.9244792 174.872396,48.031901 174.976562,48.1035156 C175.080729,48.1751302 175.184896,48.2109375 175.289062,48.2109375 Z M171.1875,40.3007812 C171.044271,40.1705729 170.904297,40.0501302 170.767578,39.9394531 C170.630859,39.828776 170.497396,39.734375 170.367188,39.65625 L166.089844,37 L180.425781,30.90625 L171.1875,40.3007812 Z M175.191406,46.1210938 L172.632812,41.9609375 C172.567708,41.8307292 172.486328,41.7005208 172.388672,41.5703125 C172.291016,41.4401042 172.183594,41.3098958 172.066406,41.1796875 L181.324219,31.765625 L175.191406,46.1210938 Z" transform="translate(-164 -28)"/>
</svg>
