<svg xmlns="http://www.w3.org/2000/svg" width="30" height="28" viewBox="0 0 30 28">
  <path fill="none" stroke="#212529" d="M246.136,96.1395349 C246.559111,96.1395349 246.92,95.9825407 247.218667,95.6685523 C247.517333,95.3545639 247.666667,94.9751612 247.666667,94.5303443 L247.666667,94.5303443 L247.666667,92.8426566 L266.333333,92.8426566 L266.333333,94.5303443 C266.333333,94.9751612 266.482667,95.3545639 266.781333,95.6685523 C267.08,95.9825407 267.440889,96.1395349 267.864,96.1395349 L267.864,96.1395349 L269.469333,96.1395349 C269.892444,96.1395349 270.253333,95.9825407 270.552,95.6685523 C270.850667,95.3545639 271,94.9751612 271,94.5303443 L271,94.5303443 L271,81.4213283 L267.789333,71.6091906 C267.64,71.1120423 267.36,70.7195568 266.949333,70.4317341 C266.538667,70.1439114 266.072,70 265.549333,70 L265.549333,70 L248.488,70 C247.965333,70 247.492444,70.1439114 247.069333,70.4317341 C246.646222,70.7195568 246.36,71.1120423 246.210667,71.6091906 L246.210667,71.6091906 L243,81.4213283 L243,94.5303443 C243,94.9751612 243.149333,95.3545639 243.448,95.6685523 C243.746667,95.9825407 244.107556,96.1395349 244.530667,96.1395349 L244.530667,96.1395349 L246.136,96.1395349 Z M268,81.059034 L246,81.059034 L248.381443,73.0161002 L265.656357,73.0161002 L268,81.059034 Z M266.52,88.0966011 C265.8,88.0966011 265.2,87.8486106 264.72,87.3526297 C264.24,86.8566488 264,86.2601312 264,85.5630769 C264,84.8660227 264.246667,84.2762075 264.74,83.7936315 C265.233333,83.3110555 265.826667,83.0697674 266.52,83.0697674 C267.213333,83.0697674 267.8,83.304353 268.28,83.7735242 C268.76,84.2426953 269,84.8392129 269,85.5630769 C269,86.286941 268.76,86.890161 268.28,87.372737 C267.8,87.8553131 267.213333,88.0966011 266.52,88.0966011 Z M247.52,88.0966011 C246.8,88.0966011 246.2,87.8486106 245.72,87.3526297 C245.24,86.8566488 245,86.2601312 245,85.5630769 C245,84.8660227 245.246667,84.2762075 245.74,83.7936315 C246.233333,83.3110555 246.826667,83.0697674 247.52,83.0697674 C248.213333,83.0697674 248.8,83.304353 249.28,83.7735242 C249.76,84.2426953 250,84.8392129 250,85.5630769 C250,86.286941 249.76,86.890161 249.28,87.372737 C248.8,87.8553131 248.213333,88.0966011 247.52,88.0966011 Z" transform="translate(-242 -69)"/>
</svg>
