<svg xmlns="http://www.w3.org/2000/svg" width="49" height="45" viewBox="0 0 49 45">
  <path fill="#FFF" d="M270.34375,216.0625 C271.359375,216.84375 272.472656,217.117188 273.683594,216.882812 C274.894531,216.648438 275.890625,216.023438 276.671875,215.007812 L276.671875,215.007812 L300.929688,179.617188 C301.710938,178.523438 301.984375,177.332031 301.75,176.042969 C301.515625,174.753906 300.890625,173.71875 299.875,172.9375 C298.859375,172.15625 297.726562,171.882812 296.476562,172.117188 C295.304688,172.351562 294.328125,172.976562 293.546875,173.992188 L293.546875,173.992188 L272.453125,204.8125 L260.851562,192.273438 C259.992188,191.257812 258.9375,190.730469 257.6875,190.691406 C256.4375,190.652344 255.34375,191.101562 254.40625,192.039062 C253.46875,192.976562 253,194.109375 253,195.4375 C253,196.765625 253.429688,197.898438 254.289062,198.835938 L254.289062,198.835938 L257.921875,202.820312 C260.265625,205.476562 262.765625,208.230469 265.421875,211.082031 C268.078125,213.933594 269.71875,215.59375 270.34375,216.0625 Z" transform="translate(-253 -172)"/>
</svg>
