<svg xmlns="http://www.w3.org/2000/svg" width="42" height="43" viewBox="0 0 42 43">
  <path fill="#777" d="M454.734375,294.679688 L464.207031,286.574219 L461.472656,283.351562 L452,291.457031 L454.734375,294.679688 Z M491.0625,294.679688 L493.796875,291.457031 L484.226562,283.449219 L481.492188,286.671875 L491.0625,294.679688 Z M472.898438,325.148438 C478.106771,325.148438 482.55013,323.325521 486.228516,319.679688 C489.906901,316.033854 491.746094,311.639323 491.746094,306.496094 C491.746094,301.352865 489.906901,296.958333 486.228516,293.3125 C482.55013,289.666667 478.106771,287.84375 472.898438,287.84375 C467.690104,287.84375 463.230469,289.666667 459.519531,293.3125 C455.873698,296.958333 454.050781,301.352865 454.050781,306.496094 C454.050781,311.639323 455.889974,316.033854 459.568359,319.679688 C463.246745,323.325521 467.690104,325.148438 472.898438,325.148438 Z M472.898438,321.046875 C468.861979,321.046875 465.411458,319.614583 462.546875,316.75 C459.682292,313.885417 458.25,310.467448 458.25,306.496094 C458.25,302.52474 459.682292,299.106771 462.546875,296.242188 C465.411458,293.377604 468.861979,291.945312 472.898438,291.945312 C476.934896,291.945312 480.385417,293.377604 483.25,296.242188 C486.114583,299.106771 487.546875,302.52474 487.546875,306.496094 C487.546875,310.532552 486.114583,313.966797 483.25,316.798828 C480.385417,319.630859 476.934896,321.046875 472.898438,321.046875 Z M480.710938,314.503906 L482.273438,311.867188 L473.972656,306.984375 L473.972656,296.144531 L470.847656,296.144531 L470.847656,308.546875 L480.710938,314.503906 Z" transform="translate(-452 -283)"/>
</svg>
