<svg xmlns="http://www.w3.org/2000/svg" width="20" height="18" viewBox="0 0 20 18">
  <path fill="#212529" d="M154.9375,303.625 C155.34375,303.9375 155.789062,304.046875 156.273438,303.953125 C156.757812,303.859375 157.15625,303.609375 157.46875,303.203125 L157.46875,303.203125 L167.171875,289.046875 C167.484375,288.609375 167.59375,288.132812 167.5,287.617188 C167.40625,287.101562 167.15625,286.6875 166.75,286.375 C166.34375,286.0625 165.890625,285.953125 165.390625,286.046875 C164.921875,286.140625 164.53125,286.390625 164.21875,286.796875 L164.21875,286.796875 L155.78125,299.125 L151.140625,294.109375 C150.796875,293.703125 150.375,293.492188 149.875,293.476562 C149.375,293.460938 148.9375,293.640625 148.5625,294.015625 C148.1875,294.390625 148,294.84375 148,295.375 C148,295.90625 148.171875,296.359375 148.515625,296.734375 L148.515625,296.734375 L149.96875,298.328125 C150.90625,299.390625 151.90625,300.492188 152.96875,301.632812 C153.5,302.203125 153.929688,302.654297 154.257812,302.986328 L154.484863,303.213013 C154.692871,303.417358 154.84375,303.554688 154.9375,303.625 Z" transform="translate(-148 -286)"/>
</svg>
