<svg xmlns="http://www.w3.org/2000/svg" width="20" height="21" viewBox="0 0 20 21">
  <path fill="#212529" d="M204,49.584 C205.824,49.584 207.512,49.128 209.064,48.216 C210.568,47.352 211.752,46.168 212.616,44.664 C213.528,43.112 213.984,41.424 213.984,39.6 C213.984,37.776 213.528,36.088 212.616,34.536 C211.752,33.032 210.568,31.848 209.064,30.984 C207.512,30.072 205.824,29.616 204,29.616 C202.192,29.616 200.512,30.072 198.96,30.984 C197.456,31.864 196.264,33.056 195.384,34.56 C194.472,36.112 194.016,37.792 194.016,39.6 C194.016,41.408 194.472,43.088 195.384,44.64 C196.248,46.144 197.432,47.336 198.936,48.216 C200.488,49.128 202.176,49.584 204,49.584 Z M204,47.616 C202.56,47.616 201.216,47.248 199.968,46.512 C198.752,45.808 197.792,44.848 197.088,43.632 C196.352,42.384 195.984,41.04 195.984,39.6 C195.984,38.16 196.352,36.816 197.088,35.568 C197.792,34.352 198.752,33.392 199.968,32.688 C201.216,31.952 202.56,31.584 204,31.584 C205.44,31.584 206.784,31.952 208.032,32.688 C209.248,33.392 210.208,34.352 210.912,35.568 C211.648,36.816 212.016,38.16 212.016,39.6 C212.016,41.04 211.648,42.384 210.912,43.632 C210.208,44.848 209.248,45.808 208.032,46.512 C206.784,47.248 205.44,47.616 204,47.616 Z M208.272,43.776 L209.016,42.504 L204.528,39.84 L204.528,34.584 L203.016,34.584 L203.016,40.584 L208.272,43.776 Z" transform="translate(-194 -29)"/>
</svg>
