<svg xmlns="http://www.w3.org/2000/svg" width="40" height="32" viewBox="0 0 40 32">
  <path fill="#777" d="M94.364,312.264 C95.4066667,312.264 96.296,311.880667 97.032,311.114 C97.768,310.347333 98.136,309.442667 98.136,308.4 L98.136,308.4 L98.136,285.4 C98.136,284.357333 97.768,283.452667 97.032,282.686 C96.296,281.919333 95.4066667,281.536 94.364,281.536 L94.364,281.536 L63.636,281.536 C62.5933333,281.536 61.704,281.919333 60.968,282.686 C60.232,283.452667 59.864,284.357333 59.864,285.4 L59.864,285.4 L59.864,308.4 C59.864,309.442667 60.232,310.347333 60.968,311.114 C61.704,311.880667 62.5933333,312.264 63.636,312.264 L63.636,312.264 L94.364,312.264 Z M79,295.014 L63.636,285.4 L94.364,285.4 L79,295.014 Z M94.364,308.4 L63.636,308.4 L63.636,289.264 L79,298.786 L94.364,289.264 L94.364,308.4 Z" transform="translate(-59 -281)"/>
</svg>
