<svg xmlns="http://www.w3.org/2000/svg" width="49" height="43" viewBox="0 0 49 43">
  <path fill="#BDAD73" stroke="#BDAD73" d="M11.9077519,41.4 C16.5589147,41.4 20.9,38.3806202 20.9,32.1829457 C20.9,27.0976744 16.8689922,24.2372093 13.3031008,24.2372093 C12.3728682,24.2372093 11.9077519,24.396124 11.2875969,24.396124 C9.58217054,24.396124 8.80697674,23.1248062 8.80697674,20.4232558 C8.80697674,18.1984496 9.7372093,14.8612403 12.0627907,11.3651163 C13.9232558,8.02790698 16.8689922,5.64418605 19.1945736,3.7372093 C19.6596899,3.41937984 19.8147287,3.10155039 19.8147287,2.6248062 C19.8147287,1.5124031 18.8844961,0.4 17.9542636,0.4 C17.644186,0.4 17.3341085,0.558914729 17.024031,0.717829457 C15.3186047,1.67131783 11.5976744,4.05503876 7.87674419,8.50465116 C3.84573643,13.272093 0.9,19.3108527 0.9,28.2100775 C0.9,36.4736434 5.39612403,41.4 11.9077519,41.4 Z M38.9077519,41.4 C43.5589147,41.4 47.9,38.3806202 47.9,32.1829457 C47.9,27.0976744 43.8689922,24.2372093 40.3031008,24.2372093 C39.3728682,24.2372093 38.9077519,24.396124 38.2875969,24.396124 C36.5821705,24.396124 35.8069767,23.1248062 35.8069767,20.4232558 C35.8069767,18.1984496 36.7372093,14.8612403 39.0627907,11.3651163 C40.9232558,8.02790698 43.8689922,5.64418605 46.1945736,3.7372093 C46.6596899,3.41937984 46.8147287,3.10155039 46.8147287,2.6248062 C46.8147287,1.5124031 45.8844961,0.4 44.9542636,0.4 C44.644186,0.4 44.3341085,0.558914729 44.024031,0.717829457 C42.3186047,1.67131783 38.5976744,4.05503876 34.8767442,8.50465116 C30.8457364,13.272093 27.9,19.3108527 27.9,28.2100775 C27.9,36.4736434 32.396124,41.4 38.9077519,41.4 Z" opacity=".415" transform="translate(.1 .6)"/>
</svg>
