<svg xmlns="http://www.w3.org/2000/svg" width="44" height="45" viewBox="0 0 44 45">
  <g fill="none" fill-rule="evenodd" stroke="#777" transform="translate(1 2)">
    <path stroke-linecap="round" stroke-width="3" d="M33.625 18.75C33.625 13.2271525 29.1478475 8.75 23.625 8.75M41.375 20C41.375 8.954305 32.420695 0 21.375 0"/>
    <path fill="#666" fill-rule="nonzero" d="M31.796875,41.796875 C32.1354167,41.796875 32.5325521,41.6666667 32.9882812,41.40625 C33.4440104,41.1458333 33.9453125,40.7552083 34.4921875,40.234375 C35.0651042,39.7135417 35.5598958,39.2382812 35.9765625,38.8085938 C36.3932292,38.3789062 36.7317708,37.9947917 36.9921875,37.65625 C37.2786458,37.3177083 37.5260417,37.0182292 37.734375,36.7578125 C37.9427083,36.4973958 38.0989583,36.2760417 38.203125,36.09375 C38.4635417,35.703125 38.6458333,35.3190104 38.75,34.9414062 C38.8541667,34.5638021 38.8932292,34.1927083 38.8671875,33.828125 C38.8151042,33.4895833 38.7109375,33.1770833 38.5546875,32.890625 C38.3984375,32.6041667 38.1901042,32.3697917 37.9296875,32.1875 C36.4453125,31.1458333 35.0520833,30.1888021 33.75,29.3164063 C32.4479167,28.4440104 31.2109375,27.65625 30.0390625,26.953125 C29.8567708,26.8489583 29.6679688,26.7708333 29.4726563,26.71875 C29.2773438,26.6666667 29.0625,26.640625 28.828125,26.640625 C28.5416667,26.640625 28.2356771,26.6861979 27.9101562,26.7773438 C27.5846354,26.8684896 27.265625,27.0052083 26.953125,27.1875 C26.6927083,27.3177083 26.2695312,27.5455729 25.6835938,27.8710938 C25.0976562,28.1966146 24.3619792,28.6197917 23.4765625,29.140625 C22.7213542,28.59375 21.8684896,27.8971354 20.9179688,27.0507813 C19.9674479,26.2044271 18.9192708,25.2083333 17.7734375,24.0625 C16.6536458,22.9427083 15.6705729,21.9010417 14.8242188,20.9375 C13.9778646,19.9739583 13.28125,19.1015625 12.734375,18.3203125 C13.2291667,17.4088542 13.6328125,16.6666667 13.9453125,16.09375 C14.2578125,15.5208333 14.4791667,15.1041667 14.609375,14.84375 C14.9479167,14.2447917 15.1367188,13.6848958 15.1757812,13.1640625 C15.2148438,12.6432292 15.1041667,12.1744792 14.84375,11.7578125 C13.828125,10.1692708 12.8841146,8.72395833 12.0117187,7.421875 C11.1393229,6.11979167 10.3385417,4.9609375 9.609375,3.9453125 C9.375,3.6328125 9.09505208,3.40494792 8.76953125,3.26171875 C8.44401042,3.11848958 8.07291667,3.046875 7.65625,3.046875 C7.29166667,3.046875 6.953125,3.09244792 6.640625,3.18359375 C6.328125,3.27473958 6.02864583,3.42447917 5.7421875,3.6328125 C5.53385417,3.7890625 5.28645833,3.97135417 5,4.1796875 C4.71354167,4.38802083 4.4140625,4.609375 4.1015625,4.84375 C3.76302083,5.10416667 3.38541667,5.43619792 2.96875,5.83984375 C2.55208333,6.24348958 2.08333333,6.73177083 1.5625,7.3046875 C1.04166667,7.87760417 0.651041667,8.39192708 0.390625,8.84765625 C0.130208333,9.30338542 0,9.71354167 0,10.078125 C0.0520833333,11.40625 0.338541667,12.8190104 0.859375,14.3164062 C1.38020833,15.8138021 2.14192708,17.3828125 3.14453125,19.0234375 C4.14713542,20.6640625 5.38411458,22.3828125 6.85546875,24.1796875 C8.32682292,25.9765625 10.0390625,27.8515625 11.9921875,29.8046875 C13.9453125,31.7317708 15.8203125,33.4375 17.6171875,34.921875 C19.4140625,36.40625 21.1328125,37.6432292 22.7734375,38.6328125 C24.4140625,39.6223958 25.9765625,40.3841146 27.4609375,40.9179688 C28.9453125,41.4518229 30.3645833,41.7447917 31.71875,41.796875 L31.796875,41.796875 Z M31.71875,39.375 C30.546875,39.296875 29.2903646,39.0104167 27.9492188,38.515625 C26.6080729,38.0208333 25.1888021,37.3046875 23.6914062,36.3671875 C22.1940104,35.4296875 20.6184896,34.2708333 18.9648438,32.890625 C17.3111979,31.5104167 15.5729167,29.9088542 13.75,28.0859375 C11.9270833,26.2630208 10.3255208,24.5247396 8.9453125,22.8710938 C7.56510417,21.2174479 6.40625,19.6419271 5.46875,18.1445312 C4.53125,16.6471354 3.81510417,15.234375 3.3203125,13.90625 C2.82552083,12.578125 2.55208333,11.328125 2.5,10.15625 C2.578125,9.921875 2.75390625,9.63541667 3.02734375,9.296875 C3.30078125,8.95833333 3.671875,8.5546875 4.140625,8.0859375 C4.609375,7.6171875 5.09114583,7.16796875 5.5859375,6.73828125 C6.08072917,6.30859375 6.58854167,5.91145833 7.109375,5.546875 C7.1875,5.49479167 7.27213542,5.45572917 7.36328125,5.4296875 C7.45442708,5.40364583 7.55208333,5.390625 7.65625,5.390625 L7.65625,5.390625 L7.734375,5.390625 C8.48958333,6.484375 9.27734375,7.65625 10.0976562,8.90625 C10.9179688,10.15625 11.7838542,11.4973958 12.6953125,12.9296875 C12.6953125,13.0338542 12.6757812,13.1510417 12.6367188,13.28125 C12.5976562,13.4114583 12.5390625,13.5546875 12.4609375,13.7109375 C12.3307292,13.9453125 12.109375,14.3424479 11.796875,14.9023438 C11.484375,15.4622396 11.0807292,16.1979167 10.5859375,17.109375 L10.5859375,17.109375 L9.8046875,18.4765625 L10.7421875,19.6875 C11.3151042,20.5208333 12.0442708,21.4388021 12.9296875,22.4414062 C13.8151042,23.4440104 14.84375,24.5442708 16.015625,25.7421875 C17.2135417,26.9401042 18.3138021,27.9882812 19.3164062,28.8867188 C20.3190104,29.7851562 21.2369792,30.5208333 22.0703125,31.09375 L22.0703125,31.09375 L23.359375,31.953125 L24.6484375,31.171875 C25.5598958,30.6770833 26.3020833,30.2734375 26.875,29.9609375 C27.4479167,29.6484375 27.8385417,29.4270833 28.046875,29.296875 C28.203125,29.21875 28.3463542,29.1601562 28.4765625,29.1210938 C28.6067708,29.0820312 28.7239583,29.0625 28.828125,29.0625 C29.84375,29.7135417 30.9830729,30.4557292 32.2460938,31.2890625 C33.5091146,32.1223958 34.8958333,33.0729167 36.40625,34.140625 C36.4322917,34.21875 36.4322917,34.3033854 36.40625,34.3945312 C36.3802083,34.4856771 36.328125,34.5833333 36.25,34.6875 C35.859375,35.2083333 35.4557292,35.7226562 35.0390625,36.2304688 C34.6223958,36.7382812 34.1796875,37.2265625 33.7109375,37.6953125 C33.2421875,38.1640625 32.8385417,38.5416667 32.5,38.828125 C32.1614583,39.1145833 31.9010417,39.296875 31.71875,39.375 Z"/>
  </g>
</svg>
