<svg xmlns="http://www.w3.org/2000/svg" width="30" height="34" viewBox="0 0 30 34">
  <g fill="none" fill-rule="evenodd" stroke="#212529" transform="translate(1)">
    <g transform="rotate(-11 21.941 -1)">
      <path d="M4.62329658,17.2712789 L4.5038116,3.51903369 C4.49421502,2.41450588 5.38183217,1.51132961 6.48635998,1.50173304 C6.49788628,1.50163289 6.50941323,1.50163239 6.52093954,1.50173154 L9.15590649,1.52439761 C10.2462738,1.53377698 11.128183,2.41483803 11.1386116,3.50519576 L11.2912652,19.4658596 L11.2912652,19.4658596" transform="rotate(-30 7.889 10.475)"/>
      <path d="M11.1308739,17.3912088 L13.5739404,23.5986631 C13.7762019,24.1125782 14.3567777,24.3652234 14.8706928,24.162962 C15.1331237,24.0596771 15.3397406,23.8503799 15.4396345,23.5866396 L17.7645948,17.4482725 L17.7645948,17.4482725" transform="rotate(-30 14.448 21.7)"/>
    </g>
    <line x1="13.259" x2="18.385" y1="22.19" y2="17.091"/>
    <path d="M20.0640064,25.1341682 C28.1457401,26.7514604 29.8378801,27.826028 25.1404263,28.3578708 C18.0942457,29.1556351 4.33089662,29.7342587 10.6791167,30.8246011 C17.0273369,31.9149435 28.5158169,31.9984712 26.8281216,33.177102"/>
  </g>
</svg>
