<svg xmlns="http://www.w3.org/2000/svg" width="7" height="14" viewBox="0 0 7 14">
  <path d="M358.5,192 L358.5,185.25 L360.46875,185.25 L360.75,183 L358.5,183 L358.5,181.664062 C358.5,181.335938 358.564453,181.101562 358.693359,180.960938 C358.822266,180.820312 359.109375,180.75 359.554688,180.75 L359.554688,180.75 L360.75,180.75 L360.75,178.5 L358.78125,178.5 C357.632812,178.5 356.8125,178.751953 356.320312,179.255859 C355.828125,179.759766 355.582031,180.503906 355.582031,181.488281 L355.582031,181.488281 L355.582031,183 L354,183 L354,185.25 L355.582031,185.25 L355.582031,192 L358.5,192 Z" transform="translate(-354 -178)"/>
</svg>
