<svg xmlns="http://www.w3.org/2000/svg" width="6" height="12" viewBox="0 0 6 12">
  <path fill="#BDAD73" d="M464,299 L464,293 L465.75,293 L466,291 L464,291 L464,289.8125 C464,289.520833 464.057292,289.3125 464.171875,289.1875 C464.286458,289.0625 464.541667,289 464.9375,289 L464.9375,289 L466,289 L466,287 L464.25,287 C463.229167,287 462.5,287.223958 462.0625,287.671875 C461.625,288.119792 461.40625,288.78125 461.40625,289.65625 L461.40625,289.65625 L461.40625,291 L460,291 L460,293 L461.40625,293 L461.40625,299 L464,299 Z" transform="translate(-460 -287)"/>
</svg>
