<svg xmlns="http://www.w3.org/2000/svg" width="14" height="15" viewBox="0 0 14 15">
  <path fill="#BDAD73" d="M498.164254,261.142593 C499.362902,261.14048 500.203984,261.125687 500.6875,261.098214 C501.925595,261.03869 502.883929,260.669643 503.5625,259.991071 C504.241071,259.3125 504.610119,258.354167 504.669643,257.116071 C504.699405,256.592262 504.714286,255.64881 504.714286,254.285714 L504.714022,253.978603 C504.711908,252.779956 504.697115,251.938874 504.669643,251.455357 C504.610119,250.217262 504.241071,249.258929 503.5625,248.580357 C502.883929,247.901786 501.925595,247.532738 500.6875,247.473214 C500.16369,247.443452 499.220238,247.428571 497.857143,247.428571 L497.550032,247.428836 C496.351384,247.430949 495.510302,247.445742 495.026786,247.473214 C493.78869,247.532738 492.830357,247.901786 492.151786,248.580357 C491.473214,249.258929 491.104167,250.217262 491.044643,251.455357 C491.014881,251.979167 491,252.922619 491,254.285714 L491.000264,254.592825 C491.002377,255.791473 491.01717,256.632555 491.044643,257.116071 C491.104167,258.354167 491.473214,259.3125 492.151786,259.991071 C492.830357,260.669643 493.78869,261.03869 495.026786,261.098214 C495.550595,261.127976 496.494048,261.142857 497.857143,261.142857 L498.164254,261.142593 Z M496.793651,259.917163 L496.479663,259.917163 C496.386078,259.916832 496.303571,259.916171 496.232143,259.915179 C496.017857,259.912202 495.730655,259.903274 495.370536,259.888393 C495.010417,259.873512 494.703869,259.84375 494.450893,259.799107 C494.197917,259.754464 493.985119,259.699405 493.8125,259.633929 C493.514881,259.514881 493.252976,259.342262 493.026786,259.116071 C492.800595,258.889881 492.627976,258.627976 492.508929,258.330357 C492.443452,258.157738 492.388393,257.94494 492.34375,257.691964 C492.299107,257.438988 492.269345,257.13244 492.254464,256.772321 C492.239583,256.412202 492.230655,256.125 492.227679,255.910714 C492.226687,255.839286 492.226025,255.756779 492.225694,255.663194 L492.225694,255.349206 C492.226025,255.233466 492.226687,255.106647 492.227679,254.96875 C492.229167,254.761905 492.230283,254.601562 492.231027,254.487723 L492.231864,254.351842 C492.23205,254.318173 492.232143,254.296131 492.232143,254.285714 L492.232073,254.26137 C492.232027,254.250349 492.231957,254.236421 492.231864,254.219587 L492.231027,254.083705 C492.230283,253.969866 492.229167,253.809524 492.227679,253.602679 C492.226687,253.464782 492.226025,253.337963 492.225694,253.222222 L492.225694,252.908234 C492.226025,252.814649 492.226687,252.732143 492.227679,252.660714 C492.230655,252.446429 492.239583,252.159226 492.254464,251.799107 C492.269345,251.438988 492.299107,251.13244 492.34375,250.879464 C492.388393,250.626488 492.443452,250.41369 492.508929,250.241071 C492.627976,249.943452 492.800595,249.681548 493.026786,249.455357 C493.252976,249.229167 493.514881,249.056548 493.8125,248.9375 C493.985119,248.872024 494.197917,248.816964 494.450893,248.772321 C494.703869,248.727679 495.010417,248.697917 495.370536,248.683036 C495.730655,248.668155 496.017857,248.659226 496.232143,248.65625 C496.303571,248.655258 496.386078,248.654597 496.479663,248.654266 L496.793651,248.654266 C496.909392,248.654597 497.03621,248.655258 497.174107,248.65625 C497.432664,248.65811 497.618559,248.659389 497.731794,248.660086 L498.535714,248.660714 C498.952381,248.654762 499.267857,248.653274 499.482143,248.65625 C499.696429,248.659226 499.983631,248.668155 500.34375,248.683036 C500.703869,248.697917 501.010417,248.727679 501.263393,248.772321 C501.516369,248.816964 501.729167,248.872024 501.901786,248.9375 C502.199405,249.056548 502.46131,249.229167 502.6875,249.455357 C502.91369,249.681548 503.08631,249.943452 503.205357,250.241071 C503.270833,250.41369 503.325893,250.626488 503.370536,250.879464 C503.415179,251.13244 503.44494,251.438988 503.459821,251.799107 C503.474702,252.159226 503.483631,252.446429 503.486607,252.660714 C503.487599,252.732143 503.488261,252.814649 503.488591,252.908234 L503.488591,253.222222 C503.488261,253.337963 503.487599,253.464782 503.486607,253.602679 C503.484747,253.861235 503.483468,254.047131 503.482771,254.160366 L503.482771,254.411063 C503.483468,254.524298 503.484747,254.710193 503.486607,254.96875 C503.487599,255.106647 503.488261,255.233466 503.488591,255.349206 L503.488591,255.663194 C503.488261,255.756779 503.487599,255.839286 503.486607,255.910714 C503.483631,256.125 503.474702,256.412202 503.459821,256.772321 C503.44494,257.13244 503.415179,257.438988 503.370536,257.691964 C503.325893,257.94494 503.270833,258.157738 503.205357,258.330357 C503.08631,258.627976 502.91369,258.889881 502.6875,259.116071 C502.46131,259.342262 502.199405,259.514881 501.901786,259.633929 C501.729167,259.699405 501.516369,259.754464 501.263393,259.799107 C501.010417,259.84375 500.703869,259.873512 500.34375,259.888393 C499.983631,259.903274 499.696429,259.912202 499.482143,259.915179 C499.410714,259.916171 499.328208,259.916832 499.234623,259.917163 L498.920635,259.917163 C498.804894,259.916832 498.678075,259.916171 498.540179,259.915179 C498.229911,259.912946 498.024275,259.911551 497.92327,259.910993 L497.791016,259.910993 C497.690011,259.911551 497.484375,259.912946 497.174107,259.915179 C497.03621,259.916171 496.909392,259.916832 496.793651,259.917163 Z M501.517857,251.446429 C501.744048,251.446429 501.9375,251.366071 502.098214,251.205357 C502.258929,251.044643 502.339286,250.85119 502.339286,250.625 C502.339286,250.39881 502.258929,250.205357 502.098214,250.044643 C501.9375,249.883929 501.744048,249.803571 501.517857,249.803571 C501.291667,249.803571 501.098214,249.883929 500.9375,250.044643 C500.776786,250.205357 500.696429,250.39881 500.696429,250.625 C500.696429,250.85119 500.776786,251.044643 500.9375,251.205357 C501.098214,251.366071 501.291667,251.446429 501.517857,251.446429 Z M497.857143,257.803571 C498.833333,257.803571 499.66369,257.46131 500.348214,256.776786 C501.032738,256.092262 501.375,255.261905 501.375,254.285714 C501.375,253.309524 501.032738,252.479167 500.348214,251.794643 C499.66369,251.110119 498.833333,250.767857 497.857143,250.767857 C496.880952,250.767857 496.050595,251.110119 495.366071,251.794643 C494.681548,252.479167 494.339286,253.309524 494.339286,254.285714 C494.339286,255.261905 494.681548,256.092262 495.366071,256.776786 C496.050595,257.46131 496.880952,257.803571 497.857143,257.803571 Z M497.857143,256.571429 C497.22619,256.571429 496.6875,256.348214 496.241071,255.901786 C495.794643,255.455357 495.571429,254.916667 495.571429,254.285714 C495.571429,253.654762 495.794643,253.116071 496.241071,252.669643 C496.6875,252.223214 497.22619,252 497.857143,252 C498.488095,252 499.026786,252.223214 499.473214,252.669643 C499.919643,253.116071 500.142857,253.654762 500.142857,254.285714 C500.142857,254.916667 499.919643,255.455357 499.473214,255.901786 C499.026786,256.348214 498.488095,256.571429 497.857143,256.571429 Z" transform="translate(-491 -247)"/>
</svg>
