<svg xmlns="http://www.w3.org/2000/svg" width="16" height="17" viewBox="0 0 16 17">
  <path d="M291.035663,203.285458 C292.396985,203.283237 293.351244,203.266582 293.898438,203.235491 C295.291295,203.168527 296.36942,202.753348 297.132812,201.989955 C297.896205,201.226562 298.311384,200.148438 298.378348,198.75558 C298.41183,198.166295 298.428571,197.104911 298.428571,195.571429 L298.428315,195.250051 C298.426094,193.888729 298.409439,192.934471 298.378348,192.387277 C298.311384,190.99442 297.896205,189.916295 297.132812,189.152902 C296.36942,188.389509 295.291295,187.97433 293.898438,187.907366 C293.309152,187.873884 292.247768,187.857143 290.714286,187.857143 L290.392908,187.857399 C289.031586,187.85962 288.077328,187.876276 287.530134,187.907366 C286.137277,187.97433 285.059152,188.389509 284.295759,189.152902 C283.532366,189.916295 283.117188,190.99442 283.050223,192.387277 C283.016741,192.976562 283,194.037946 283,195.571429 L283.000256,195.892806 C283.002477,197.254128 283.019133,198.208386 283.050223,198.75558 C283.117188,200.148438 283.532366,201.226562 284.295759,201.989955 C285.059152,202.753348 286.137277,203.168527 287.530134,203.235491 C288.11942,203.268973 289.180804,203.285714 290.714286,203.285714 L291.035663,203.285458 Z M292.542411,201.904576 C292.301339,201.907924 291.948103,201.907924 291.482701,201.904576 C291.120722,201.901972 290.885334,201.90038 290.776538,201.899802 L290.652034,201.899802 C290.543237,201.90038 290.30785,201.901972 289.945871,201.904576 C289.480469,201.907924 289.127232,201.907924 288.886161,201.904576 C288.645089,201.901228 288.321987,201.891183 287.916853,201.874442 C287.511719,201.857701 287.166853,201.824219 286.882254,201.773996 C286.597656,201.723772 286.358259,201.66183 286.164062,201.58817 C285.829241,201.454241 285.534598,201.260045 285.280134,201.00558 C285.02567,200.751116 284.831473,200.456473 284.697545,200.121652 C284.623884,199.927455 284.561942,199.688058 284.511719,199.40346 C284.461496,199.118862 284.428013,198.773996 284.411272,198.368862 C284.394531,197.963728 284.384487,197.640625 284.381138,197.399554 C284.380022,197.319196 284.379278,197.226376 284.378906,197.121094 L284.378906,196.767857 C284.379278,196.637649 284.380022,196.494978 284.381138,196.339844 C284.382999,196.081287 284.384342,195.887318 284.385169,195.757937 L284.385913,195.633681 C284.386078,195.602596 284.386161,195.581845 284.386161,195.571429 L284.386099,195.548053 C284.386057,195.537678 284.385995,195.524719 284.385913,195.509177 L284.385169,195.384921 C284.384342,195.255539 284.382999,195.06157 284.381138,194.803013 C284.380022,194.647879 284.379278,194.505208 284.378906,194.375 L284.378906,194.021763 C284.379278,193.916481 284.380022,193.823661 284.381138,193.743304 C284.384487,193.502232 284.394531,193.179129 284.411272,192.773996 C284.428013,192.368862 284.461496,192.023996 284.511719,191.739397 C284.561942,191.454799 284.623884,191.215402 284.697545,191.021205 C284.831473,190.686384 285.02567,190.391741 285.280134,190.137277 C285.534598,189.882812 285.829241,189.688616 286.164062,189.554688 C286.358259,189.481027 286.597656,189.419085 286.882254,189.368862 C287.166853,189.318638 287.511719,189.285156 287.916853,189.268415 C288.321987,189.251674 288.645089,189.241629 288.886161,189.238281 C289.127232,189.234933 289.480469,189.234933 289.945871,189.238281 C290.30785,189.240885 290.543237,189.242477 290.652034,189.243056 L291.477679,189.243304 C291.946429,189.236607 292.301339,189.234933 292.542411,189.238281 C292.783482,189.241629 293.106585,189.251674 293.511719,189.268415 C293.916853,189.285156 294.261719,189.318638 294.546317,189.368862 C294.830915,189.419085 295.070312,189.481027 295.264509,189.554688 C295.59933,189.688616 295.893973,189.882812 296.148438,190.137277 C296.402902,190.391741 296.597098,190.686384 296.731027,191.021205 C296.804688,191.215402 296.866629,191.454799 296.916853,191.739397 C296.967076,192.023996 297.000558,192.368862 297.017299,192.773996 C297.03404,193.179129 297.044085,193.502232 297.047433,193.743304 C297.048549,193.823661 297.049293,193.916481 297.049665,194.021763 L297.049665,194.375 C297.049293,194.505208 297.048549,194.647879 297.047433,194.803013 C297.045201,195.113281 297.043713,195.330543 297.042969,195.454799 L297.042969,195.688058 C297.043713,195.812314 297.045201,196.029576 297.047433,196.339844 C297.048549,196.494978 297.049293,196.637649 297.049665,196.767857 L297.049665,197.121094 C297.049293,197.226376 297.048549,197.319196 297.047433,197.399554 C297.044085,197.640625 297.03404,197.963728 297.017299,198.368862 C297.000558,198.773996 296.967076,199.118862 296.916853,199.40346 C296.866629,199.688058 296.804688,199.927455 296.731027,200.121652 C296.597098,200.456473 296.402902,200.751116 296.148438,201.00558 C295.893973,201.260045 295.59933,201.454241 295.264509,201.58817 C295.070312,201.66183 294.830915,201.723772 294.546317,201.773996 C294.261719,201.824219 293.916853,201.857701 293.511719,201.874442 C293.106585,201.891183 292.783482,201.901228 292.542411,201.904576 Z M294.832589,192.377232 C295.087054,192.377232 295.304688,192.28683 295.485491,192.106027 C295.666295,191.925223 295.756696,191.707589 295.756696,191.453125 C295.756696,191.198661 295.666295,190.981027 295.485491,190.800223 C295.304688,190.61942 295.087054,190.529018 294.832589,190.529018 C294.578125,190.529018 294.360491,190.61942 294.179688,190.800223 C293.998884,190.981027 293.908482,191.198661 293.908482,191.453125 C293.908482,191.707589 293.998884,191.925223 294.179688,192.106027 C294.360491,192.28683 294.578125,192.377232 294.832589,192.377232 Z M290.714286,199.529018 C291.8125,199.529018 292.746652,199.143973 293.516741,198.373884 C294.28683,197.603795 294.671875,196.669643 294.671875,195.571429 C294.671875,194.473214 294.28683,193.539062 293.516741,192.768973 C292.746652,191.998884 291.8125,191.613839 290.714286,191.613839 C289.616071,191.613839 288.68192,191.998884 287.91183,192.768973 C287.141741,193.539062 286.756696,194.473214 286.756696,195.571429 C286.756696,196.669643 287.141741,197.603795 287.91183,198.373884 C288.68192,199.143973 289.616071,199.529018 290.714286,199.529018 Z M290.714286,198.142857 C290.004464,198.142857 289.398438,197.891741 288.896205,197.389509 C288.393973,196.887277 288.142857,196.28125 288.142857,195.571429 C288.142857,194.861607 288.393973,194.25558 288.896205,193.753348 C289.398438,193.251116 290.004464,193 290.714286,193 C291.424107,193 292.030134,193.251116 292.532366,193.753348 C293.034598,194.25558 293.285714,194.861607 293.285714,195.571429 C293.285714,196.28125 293.034598,196.887277 292.532366,197.389509 C292.030134,197.891741 291.424107,198.142857 290.714286,198.142857 Z" transform="translate(-283 -187)"/>
</svg>
