<svg xmlns="http://www.w3.org/2000/svg" width="18" height="16" viewBox="0 0 18 16">
  <path fill="#212529" d="M241.304688,48.0390625 C241.695312,48.0390625 242.027344,47.9023438 242.300781,47.6289062 C242.574219,47.3554688 242.710938,47.0234375 242.710938,46.6328125 L242.710938,34.40625 C242.710938,34.015625 242.574219,33.6835938 242.300781,33.4101562 C242.027344,33.1367188 241.695312,33 241.304688,33 L226.597656,33 C226.207031,33 225.875,33.1367188 225.601562,33.4101562 C225.328125,33.6835938 225.191406,34.015625 225.191406,34.40625 L225.191406,46.6328125 C225.191406,47.0234375 225.328125,47.3554688 225.601562,47.6289062 C225.875,47.9023438 226.207031,48.0390625 226.597656,48.0390625 L241.304688,48.0390625 Z M234,39.0546875 L233.980469,39.0546875 C233.785156,39.0546875 233.622396,38.9830729 233.492188,38.8398438 L233.453125,38.8203125 L228.101562,34.40625 L239.800781,34.40625 L234.566406,38.78125 L234.527344,38.8007812 L234.507812,38.8398438 C234.364583,38.9830729 234.195312,39.0546875 234,39.0546875 Z M241.304688,46.6328125 L226.597656,46.6328125 L226.597656,34.9726562 L232.515625,39.8554688 C232.919271,40.2591146 233.414062,40.4609375 234,40.4609375 C234.585938,40.4609375 235.080729,40.2526042 235.484375,39.8359375 L241.304688,34.9726562 L241.304688,46.6328125 Z" transform="translate(-225 -33)"/>
</svg>
