<svg xmlns="http://www.w3.org/2000/svg" width="41" height="43" viewBox="0 0 41 43">
  <g fill="none" fill-rule="evenodd" stroke="#212529" transform="translate(1)">
    <ellipse cx="19.577" cy="20.719" rx="9" ry="9.048"/>
    <path d="M15.5766212,28.7620221 C15.3437013,32.3252095 14.68119,34.1068033 13.5890873,34.1068033 C11.9509332,34.1068033 5.57662116,35.1781329 4.09793061,36.1939317 C2.61924007,37.2097305 0.596831638,37.7081925 0,41.5942438"/>
    <path d="M39.1532423,28.7620221 C38.9203224,32.3252095 38.2578111,34.1068033 37.1657084,34.1068033 C35.5275544,34.1068033 29.1532423,35.1781329 27.6745518,36.1939317 C26.1958612,37.2097305 24.1734528,37.7081925 23.5766212,41.5942438" transform="matrix(-1 0 0 1 62.73 0)"/>
    <line x2="39.153" y1="41.594" y2="41.594"/>
    <path stroke-linecap="round" stroke-linejoin="round" d="M12.4624606,34.7942225 C13.9021877,35.8391108 15.0499296,37.1696846 15.9056861,38.7859441 C16.7614427,40.4022036 16.9850877,41.2103333 16.5766212,41.2103333"/>
    <path stroke-linecap="round" stroke-linejoin="round" d="M21.5766212,34.7942225 C23.0163483,35.8391108 24.1640901,37.1696846 25.0198467,38.7859441 C25.8756033,40.4022036 26.0992483,41.2103333 25.6907817,41.2103333" transform="matrix(-1 0 0 1 47.465 0)"/>
    <path d="M15.9303879 12.8778738C15.0558104 15.8130393 13.2712214 18.1336156 10.5766212 19.8396025M18.8301917 11.6707878C20.6398377 14.2200163 22.3348773 18.6882647 28.5766212 19.2639336"/>
    <line x1="22.5" x2="25" y1="7.28" y2="3.125" stroke-linecap="round" stroke-linejoin="round"/>
    <line x1="14.25" x2="16.75" y1="7.238" y2="3.083" stroke-linecap="round" stroke-linejoin="round" transform="matrix(-1 0 0 1 30.5 0)"/>
    <line x1="19.5" x2="19.5" y1="6.233" y2=".503" stroke-linecap="round" stroke-linejoin="round"/>
    <path/>
  </g>
</svg>
