<svg xmlns="http://www.w3.org/2000/svg" width="17" height="18" viewBox="0 0 17 18">
  <path fill="none" stroke="#212529" d="M398.388494,192 C399.041903,192 399.702415,191.806818 400.370028,191.420455 C401.087358,190.996212 401.520597,190.594697 401.669744,190.215909 C401.747869,190.026515 401.822443,189.767045 401.893466,189.4375 C401.964489,189.107955 402,188.840909 402,188.636364 C402,188.530303 401.989347,188.450758 401.96804,188.397727 C401.925426,188.261364 401.65554,188.060606 401.158381,187.795455 C401.023438,187.712121 400.831676,187.598485 400.583097,187.454545 C400.334517,187.310606 400.10902,187.17803 399.906605,187.056818 C399.70419,186.935606 399.514205,186.818182 399.336648,186.704545 C399.308239,186.681818 399.21946,186.61553 399.070312,186.505682 C398.921165,186.395833 398.795099,186.314394 398.692116,186.261364 C398.589134,186.208333 398.487926,186.181818 398.388494,186.181818 C398.246449,186.181818 398.068892,186.289773 397.855824,186.505682 C397.642756,186.721591 397.447443,186.956439 397.269886,187.210227 C397.09233,187.464015 396.904119,187.698864 396.705256,187.914773 C396.506392,188.130682 396.34304,188.238636 396.215199,188.238636 C396.151278,188.238636 396.071378,188.219697 395.975497,188.181818 C395.879616,188.143939 395.806818,188.111742 395.757102,188.085227 C395.707386,188.058712 395.622159,188.005682 395.50142,187.926136 C395.380682,187.846591 395.31321,187.80303 395.299006,187.795455 C394.325994,187.219697 393.491477,186.560606 392.795455,185.818182 C392.099432,185.075758 391.481534,184.185606 390.941761,183.147727 C390.934659,183.132576 390.893821,183.060606 390.819247,182.931818 C390.744673,182.80303 390.694957,182.712121 390.670099,182.659091 C390.645241,182.606061 390.615057,182.528409 390.579545,182.426136 C390.544034,182.323864 390.526278,182.238636 390.526278,182.170455 C390.526278,182.034091 390.627486,181.859848 390.829901,181.647727 C391.032315,181.435606 391.252486,181.234848 391.490412,181.045455 C391.728338,180.856061 391.948509,180.647727 392.150923,180.420455 C392.353338,180.193182 392.454545,180.003788 392.454545,179.852273 C392.454545,179.746212 392.429688,179.638258 392.379972,179.528409 C392.330256,179.418561 392.253906,179.284091 392.150923,179.125 C392.04794,178.965909 391.985795,178.871212 391.964489,178.840909 C391.857955,178.651515 391.747869,178.448864 391.634233,178.232955 C391.520597,178.017045 391.396307,177.776515 391.261364,177.511364 C391.12642,177.246212 391.019886,177.041667 390.941761,176.897727 C390.693182,176.367424 390.504972,176.079545 390.377131,176.034091 C390.327415,176.011364 390.252841,176 390.153409,176 C389.961648,176 389.711293,176.037879 389.402344,176.113636 C389.093395,176.189394 388.850142,176.268939 388.672585,176.352273 C388.317472,176.511364 387.941051,176.973485 387.543324,177.738636 C387.181108,178.450758 387,179.155303 387,179.852273 C387,180.056818 387.012429,180.255682 387.037287,180.448864 C387.062145,180.642045 387.106534,180.859848 387.170455,181.102273 C387.234375,181.344697 387.285866,181.524621 387.324929,181.642045 C387.363991,181.75947 387.43679,181.969697 387.543324,182.272727 C387.649858,182.575758 387.713778,182.761364 387.735085,182.829545 C387.983665,183.57197 388.278409,184.234848 388.619318,184.818182 C389.180398,185.787879 389.945668,186.789773 390.915128,187.823864 C391.884588,188.857955 392.823864,189.674242 393.732955,190.272727 C394.27983,190.636364 394.901278,190.950758 395.597301,191.215909 C395.661222,191.238636 395.835227,191.306818 396.119318,191.420455 C396.403409,191.534091 396.600497,191.611742 396.710582,191.653409 C396.820668,191.695076 396.989347,191.75 397.216619,191.818182 C397.443892,191.886364 397.648082,191.933712 397.82919,191.960227 C398.010298,191.986742 398.196733,192 398.388494,192 Z" transform="translate(-386 -175)"/>
</svg>
