<svg xmlns="http://www.w3.org/2000/svg" width="7" height="14" viewBox="0 0 7 14">
  <path fill="#FFF" d="M96.5,62 L96.5,55.25 L98.46875,55.25 L98.75,53 L96.5,53 L96.5,51.6640625 C96.5,51.3359375 96.5644531,51.1015625 96.6933594,50.9609375 C96.8222656,50.8203125 97.109375,50.75 97.5546875,50.75 L97.5546875,50.75 L98.75,50.75 L98.75,48.5 L96.78125,48.5 C95.6328125,48.5 94.8125,48.7519531 94.3203125,49.2558594 C93.828125,49.7597656 93.5820312,50.5039062 93.5820312,51.4882812 L93.5820312,51.4882812 L93.5820312,53 L92,53 L92,55.25 L93.5820312,55.25 L93.5820312,62 L96.5,62 Z" transform="translate(-92 -48)"/>
</svg>
