<svg xmlns="http://www.w3.org/2000/svg" width="17" height="18" viewBox="0 0 17 18">
  <path fill="none" stroke="#FFF" d="M83.3884943,79 C84.0419034,79 84.7024148,78.8068182 85.3700284,78.4204545 C86.087358,77.9962121 86.5205966,77.594697 86.6697443,77.2159091 C86.7478693,77.0265152 86.8224432,76.7670455 86.8934659,76.4375 C86.9644886,76.1079545 87,75.8409091 87,75.6363636 C87,75.530303 86.9893466,75.4507576 86.9680398,75.3977273 C86.9254261,75.2613636 86.6555398,75.0606061 86.1583807,74.7954545 C86.0234375,74.7121212 85.8316761,74.5984848 85.5830966,74.4545455 C85.334517,74.3106061 85.1090199,74.1780303 84.9066051,74.0568182 C84.7041903,73.9356061 84.5142045,73.8181818 84.3366477,73.7045455 C84.3082386,73.6818182 84.2194602,73.6155303 84.0703125,73.5056818 C83.9211648,73.3958333 83.7950994,73.3143939 83.6921165,73.2613636 C83.5891335,73.2083333 83.4879261,73.1818182 83.3884943,73.1818182 C83.2464489,73.1818182 83.068892,73.2897727 82.8558239,73.5056818 C82.6427557,73.7215909 82.4474432,73.9564394 82.2698864,74.2102273 C82.0923295,74.4640152 81.9041193,74.6988636 81.7052557,74.9147727 C81.506392,75.1306818 81.3430398,75.2386364 81.2151989,75.2386364 C81.1512784,75.2386364 81.0713778,75.219697 80.9754972,75.1818182 C80.8796165,75.1439394 80.8068182,75.1117424 80.7571023,75.0852273 C80.7073864,75.0587121 80.6221591,75.0056818 80.5014205,74.9261364 C80.3806818,74.8465909 80.3132102,74.8030303 80.2990057,74.7954545 C79.3259943,74.219697 78.4914773,73.5606061 77.7954545,72.8181818 C77.0994318,72.0757576 76.4815341,71.1856061 75.9417614,70.1477273 C75.9346591,70.1325758 75.893821,70.0606061 75.8192472,69.9318182 C75.7446733,69.8030303 75.6949574,69.7121212 75.6700994,69.6590909 C75.6452415,69.6060606 75.6150568,69.5284091 75.5795455,69.4261364 C75.5440341,69.3238636 75.5262784,69.2386364 75.5262784,69.1704545 C75.5262784,69.0340909 75.6274858,68.8598485 75.8299006,68.6477273 C76.0323153,68.4356061 76.2524858,68.2348485 76.4904119,68.0454545 C76.7283381,67.8560606 76.9485085,67.6477273 77.1509233,67.4204545 C77.3533381,67.1931818 77.4545455,67.0037879 77.4545455,66.8522727 C77.4545455,66.7462121 77.4296875,66.6382576 77.3799716,66.5284091 C77.3302557,66.4185606 77.2539062,66.2840909 77.1509233,66.125 C77.0479403,65.9659091 76.9857955,65.8712121 76.9644886,65.8409091 C76.8579545,65.6515152 76.7478693,65.4488636 76.634233,65.2329545 C76.5205966,65.0170455 76.3963068,64.7765152 76.2613636,64.5113636 C76.1264205,64.2462121 76.0198864,64.0416667 75.9417614,63.8977273 C75.6931818,63.3674242 75.5049716,63.0795455 75.3771307,63.0340909 C75.3274148,63.0113636 75.2528409,63 75.1534091,63 C74.9616477,63 74.7112926,63.0378788 74.4023438,63.1136364 C74.0933949,63.1893939 73.850142,63.2689394 73.6725852,63.3522727 C73.3174716,63.5113636 72.9410511,63.9734848 72.5433239,64.7386364 C72.181108,65.4507576 72,66.155303 72,66.8522727 C72,67.0568182 72.012429,67.2556818 72.0372869,67.4488636 C72.0621449,67.6420455 72.1065341,67.8598485 72.1704545,68.1022727 C72.234375,68.344697 72.2858665,68.5246212 72.324929,68.6420455 C72.3639915,68.7594697 72.4367898,68.969697 72.5433239,69.2727273 C72.649858,69.5757576 72.7137784,69.7613636 72.7350852,69.8295455 C72.9836648,70.5719697 73.2784091,71.2348485 73.6193182,71.8181818 C74.1803977,72.7878788 74.9456676,73.7897727 75.9151278,74.8238636 C76.8845881,75.8579545 77.8238636,76.6742424 78.7329545,77.2727273 C79.2798295,77.6363636 79.9012784,77.9507576 80.5973011,78.2159091 C80.6612216,78.2386364 80.8352273,78.3068182 81.1193182,78.4204545 C81.4034091,78.5340909 81.6004972,78.6117424 81.7105824,78.6534091 C81.8206676,78.6950758 81.9893466,78.75 82.2166193,78.8181818 C82.443892,78.8863636 82.6480824,78.9337121 82.8291903,78.9602273 C83.0102983,78.9867424 83.196733,79 83.3884943,79 Z" transform="translate(-71 -62)"/>
</svg>
