<svg xmlns="http://www.w3.org/2000/svg" width="17" height="14" viewBox="0 0 17 14">
  <path fill="#FFF" d="M65.203125,62 C68.1328125,62 70.4824219,60.9980469 72.2519531,58.9941406 C74.0214844,56.9902344 74.90625,54.7578125 74.90625,52.296875 L74.90625,52.296875 L74.90625,51.875 C75.609375,51.359375 76.171875,50.7734375 76.59375,50.1171875 C76.0078125,50.3984375 75.3515625,50.5742188 74.625,50.6445312 C75.3984375,50.1992188 75.9023438,49.5664062 76.1367188,48.7460938 C75.3867188,49.1914062 74.6601562,49.4726562 73.9570312,49.5898438 C73.2773438,48.8632812 72.4570312,48.5 71.4960938,48.5 C70.5351562,48.5 69.7265625,48.828125 69.0703125,49.484375 C68.4140625,50.140625 68.0859375,50.9492188 68.0859375,51.9101562 C68.0859375,52.2617188 68.109375,52.5195312 68.15625,52.6835938 C65.296875,52.5429688 62.9648438,51.359375 61.1601562,49.1328125 C60.8554688,49.671875 60.703125,50.234375 60.703125,50.8203125 C60.703125,52.0625 61.2070312,53.0117188 62.2148438,53.6679688 C61.6992188,53.6679688 61.1835938,53.5273438 60.6679688,53.2460938 L60.6679688,53.2460938 L60.6679688,53.28125 C60.6679688,54.1015625 60.9316406,54.8222656 61.4589844,55.4433594 C61.9863281,56.0644531 62.6367188,56.4570312 63.4101562,56.6210938 C63.0351562,56.7148438 62.7304688,56.7617188 62.4960938,56.7617188 C62.3554688,56.7617188 62.1445312,56.7382812 61.8632812,56.6914062 C62.0742188,57.3710938 62.4726562,57.9277344 63.0585938,58.3613281 C63.6445312,58.7949219 64.3007812,59.0234375 65.0273438,59.046875 C63.7851562,60.03125 62.3789062,60.5234375 60.8085938,60.5234375 C60.6445312,60.5234375 60.375,60.5 60,60.453125 C61.59375,61.484375 63.328125,62 65.203125,62 Z" transform="translate(-60 -48)"/>
</svg>
